<?xml version="1.0" encoding="UTF-8" standalone="no"?>
<!-- Created with Inkscape (http://www.inkscape.org/) -->

<svg
   xmlns:dc="http://purl.org/dc/elements/1.1/"
   xmlns:cc="http://creativecommons.org/ns#"
   xmlns:rdf="http://www.w3.org/1999/02/22-rdf-syntax-ns#"
   xmlns:svg="http://www.w3.org/2000/svg"
   xmlns="http://www.w3.org/2000/svg"
   xmlns:sodipodi="http://sodipodi.sourceforge.net/DTD/sodipodi-0.dtd"
   xmlns:inkscape="http://www.inkscape.org/namespaces/inkscape"
   width="21"
   height="21"
   viewBox="0 0 5.55625 5.55625"
   version="1.1"
   id="svg3730"
   inkscape:version="0.92.4 (5da689c313, 2019-01-14)"
   sodipodi:docname="dispense-next.svg">
  <defs
     id="defs3724" />
  <sodipodi:namedview
     id="base"
     pagecolor="#ffffff"
     bordercolor="#666666"
     borderopacity="1.0"
     inkscape:pageopacity="0.0"
     inkscape:pageshadow="2"
     inkscape:zoom="11.2"
     inkscape:cx="7.043867"
     inkscape:cy="16.169503"
     inkscape:document-units="px"
     inkscape:current-layer="layer1"
     showgrid="false"
     units="px"
     inkscape:window-width="2560"
     inkscape:window-height="1017"
     inkscape:window-x="-8"
     inkscape:window-y="-8"
     inkscape:window-maximized="1" />
  <metadata
     id="metadata3727">
    <rdf:RDF>
      <cc:Work
         rdf:about="">
        <dc:format>image/svg+xml</dc:format>
        <dc:type
           rdf:resource="http://purl.org/dc/dcmitype/StillImage" />
        <dc:title></dc:title>
      </cc:Work>
    </rdf:RDF>
  </metadata>
  <g
     inkscape:label="Layer 1"
     inkscape:groupmode="layer"
     id="layer1"
     transform="translate(0,-291.44375)">
    <g
       id="g3815"
       transform="matrix(0.04609357,0,0,0.02788827,-1.3199848,291.71293)">
      <g
         id="g3758">
	<g
   id="g3756">
		<path
   id="path3754"
   d="M 107.808,27.535 H 92.743 v -21.3 h 14.541 c 1.729,0 3.118,-1.397 3.118,-3.118 C 110.402,1.397 109.013,0 107.284,0 H 71.955 c -1.714,0 -3.118,1.397 -3.118,3.117 0,1.721 1.404,3.118 3.118,3.118 h 14.553 v 21.3 H 71.443 c -1.726,0 -3.117,1.397 -3.117,3.117 v 89.882 c 0,10.681 7.925,19.467 18.182,20.99 v 34.61 c 0,1.717 1.403,3.117 3.118,3.117 1.726,0 3.117,-1.4 3.117,-3.117 v -34.61 c 10.267,-1.523 18.183,-10.31 18.183,-20.99 V 30.652 c 0,-1.719 -1.389,-3.117 -3.118,-3.117 z m -3.118,6.236 V 85.206 H 92.743 V 33.771 Z m -18.182,0 V 85.206 H 74.562 V 33.771 Z m 3.118,101.834 c -8.306,0 -15.064,-6.759 -15.064,-15.071 V 91.44 h 30.129 v 29.094 c -0.001,8.313 -6.759,15.071 -15.065,15.071 z"
   inkscape:connector-curvature="0" />

	</g>

</g>
      <g
         id="g3760">
</g>
      <g
         id="g3762">
</g>
      <g
         id="g3764">
</g>
      <g
         id="g3766">
</g>
      <g
         id="g3768">
</g>
      <g
         id="g3770">
</g>
      <g
         id="g3772">
</g>
      <g
         id="g3774">
</g>
      <g
         id="g3776">
</g>
      <g
         id="g3778">
</g>
      <g
         id="g3780">
</g>
      <g
         id="g3782">
</g>
      <g
         id="g3784">
</g>
      <g
         id="g3786">
</g>
      <g
         id="g3788">
</g>
    </g>
    <g
       id="g3878"
       transform="matrix(0.00380734,1.1368325e-4,-1.1693172e-4,0.00370157,3.4559961,294.62906)">
      <g
         id="g3821">
	<g
   id="g3819">
		<path
   id="path3817"
   d="M 405.284,201.188 130.804,13.28 C 118.128,4.596 105.356,0 94.74,0 74.216,0 61.52,16.472 61.52,44.044 v 406.124 c 0,27.54 12.68,43.98 33.156,43.98 10.632,0 23.2,-4.6 35.904,-13.308 L 405.188,292.936 c 17.66,-12.104 27.44,-28.392 27.44,-45.884 0.004,-17.48 -9.664,-33.764 -27.344,-45.864 z"
   inkscape:connector-curvature="0" />

	</g>

</g>
      <g
         id="g3823">
</g>
      <g
         id="g3825">
</g>
      <g
         id="g3827">
</g>
      <g
         id="g3829">
</g>
      <g
         id="g3831">
</g>
      <g
         id="g3833">
</g>
      <g
         id="g3835">
</g>
      <g
         id="g3837">
</g>
      <g
         id="g3839">
</g>
      <g
         id="g3841">
</g>
      <g
         id="g3843">
</g>
      <g
         id="g3845">
</g>
      <g
         id="g3847">
</g>
      <g
         id="g3849">
</g>
      <g
         id="g3851">
</g>
    </g>
  </g>
</svg>
